<?xml version="1.0" standalone="no"?>
<!DOCTYPE svg PUBLIC "-//W3C//DTD SVG 20010904//EN"
 "http://www.w3.org/TR/2001/REC-SVG-20010904/DTD/svg10.dtd">
<svg version="1.0" xmlns="http://www.w3.org/2000/svg"
 width="144.000000pt" height="144.000000pt" viewBox="0 0 144.000000 144.000000"
 preserveAspectRatio="xMidYMid meet">
<metadata>
Created by potrace 1.14, written by Peter Selinger 2001-2017
</metadata>
<g transform="translate(0.000000,144.000000) scale(0.100000,-0.100000)"
fill="#000000" stroke="none">
<path d="M80 720 l0 -640 40 0 40 0 0 463 0 462 115 58 c63 31 117 57 120 57
3 0 5 -180 5 -400 0 -220 2 -400 5 -400 2 0 20 8 40 17 l35 17 0 406 0 405
160 80 c117 58 160 84 160 97 0 10 -7 18 -15 18 -8 0 -150 -67 -315 -150 -165
-82 -302 -150 -305 -150 -3 0 -5 68 -5 150 l0 150 -40 0 -40 0 0 -640z"/>
<path d="M823 1247 l-223 -112 0 -420 0 -420 -180 -90 c-132 -66 -180 -94
-180 -107 0 -10 7 -18 15 -18 8 0 107 46 220 102 l205 103 0 420 0 420 200
100 c147 73 200 104 200 117 0 11 -7 18 -17 17 -10 0 -118 -50 -240 -112z"/>
<path d="M1063 1227 l-263 -132 0 -426 0 -426 25 -11 c58 -27 55 -50 55 421
l0 433 75 37 c42 20 78 37 80 37 3 0 5 -222 5 -493 l0 -494 25 -11 c58 -27 55
-58 55 516 l0 528 75 37 c42 20 78 37 80 37 3 0 5 -265 5 -588 l0 -589 25 -11
c59 -27 55 -68 55 628 0 603 -1 640 -17 639 -10 0 -136 -59 -280 -132z"/>
</g>
</svg>
